# xmcd
#
# Track frame offsets:
#  150
#  15798
#  31491
#  47601
#  62065
#  83014
#  96119
#  118171
#  144777
#  161649
#  174848
#  189631
#  204467
#  235048
#
# Disc length: 3346 seconds
#
# Revision: 0
# Processed by: cddbd v1.4PL0 Copyright (c) Steve Scherf et al.
# Submitted via: AltoMP3_Maker 3.0
#
DISCID=a60d100e
DTITLE=Billy Crash - Quetschkommod
DYEAR=1900
DGENRE=
TTITLE0=Cola-Schobbe
TTITLE1=Cadillac
TTITLE2=De Doodewache hot koon Oh‰nger
TTITLE3=Blooﬂ ver die Katz
TTITLE4=Sunndachs
TTITLE5=Ver¥s Veddische
TTITLE6=Quetsch mich
TTITLE7=Ibber¥s Meer
TTITLE8=Meenzerisch
TTITLE9=Liebling uff doine Lippe lieht moin letzte
TTITLE10=Rotwoi is Rhoihessisch Blut
TTITLE11=Du muﬂt bei mir soi
TTITLE12=Hol mer nit de Mond vum Himmel
TTITLE13=Quetschkommod (instrumental)
EXTD=
EXTT0=
EXTT1=
EXTT2=
EXTT3=
EXTT4=
EXTT5=
EXTT6=
EXTT7=
EXTT8=
EXTT9=
EXTT10=
EXTT11=
EXTT12=
EXTT13=
PLAYORDER=
